<svg xmlns="http://www.w3.org/2000/svg" viewBox="0 0 1000 400" width="1000" height="400" role="img" aria-label="エージェントが資料を読んで表（.rule）を書き、rulec check にかける。rulec は診断（どこが・どう直すか・それを起こす入力）を返し、エージェントが直して、表が通るまで繰り返す。道具では決められないことだけが具体例つきの質問として人に渡り、人は金額と丸めの向きを答える。表が通ると rulec gen が証明済みの Python と Go を出す。" font-family='-apple-system, BlinkMacSystemFont, "Hiragino Sans", "Noto Sans JP", "Yu Gothic", Meiryo, "Segoe UI", Roboto, sans-serif'>
<defs>
<marker id="head-neutral" viewBox="0 0 10 10" refX="9" refY="5" markerWidth="9" markerHeight="9" markerUnits="userSpaceOnUse" orient="auto"><path d="M0,1 L9,5 L0,9 Z" fill="#6b7590"/></marker>
<marker id="head-accent" viewBox="0 0 10 10" refX="9" refY="5" markerWidth="9" markerHeight="9" markerUnits="userSpaceOnUse" orient="auto"><path d="M0,1 L9,5 L0,9 Z" fill="#8e9cff"/></marker>
<marker id="head-human" viewBox="0 0 10 10" refX="9" refY="5" markerWidth="9" markerHeight="9" markerUnits="userSpaceOnUse" orient="auto"><path d="M0,1 L9,5 L0,9 Z" fill="#e0b45c"/></marker>
</defs>
<clipPath id="clip-agent"><rect x="166" y="20" width="160" height="196" rx="10"/></clipPath>
<rect x="166" y="20" width="160" height="196" rx="10" fill="#171b24" stroke="#2b3242"/>
<rect x="166" y="20" width="160" height="5" fill="#8e9cff" clip-path="url(#clip-agent)"/>
<text x="246.0" y="63" font-size="17" font-weight="700" text-anchor="middle" fill="#e8ebf4">エージェント</text>
<text x="246.0" y="92" font-size="12.5" font-weight="400" text-anchor="middle" fill="#98a1b8">資料を読む</text>
<text x="246.0" y="111" font-size="12.5" font-weight="400" text-anchor="middle" fill="#98a1b8">表を書く</text>
<text x="246.0" y="130" font-size="12.5" font-weight="400" text-anchor="middle" fill="#98a1b8">診断のとおりに直す</text>
<text x="246.0" y="149" font-size="12.5" font-weight="400" text-anchor="middle" fill="#98a1b8">決められないことは人へ</text>
<clipPath id="clip-rulec"><rect x="606" y="20" width="160" height="196" rx="10"/></clipPath>
<rect x="606" y="20" width="160" height="196" rx="10" fill="#171b24" stroke="#2b3242"/>
<rect x="606" y="20" width="160" height="5" fill="#8e9cff" clip-path="url(#clip-rulec)"/>
<text x="686.0" y="63" font-size="17" font-weight="700" text-anchor="middle" fill="#e8ebf4">rulec</text>
<text x="686.0" y="92" font-size="12.5" font-weight="400" text-anchor="middle" fill="#98a1b8">7 つを証明する：</text>
<text x="686.0" y="111" font-size="12.5" font-weight="400" text-anchor="middle" fill="#98a1b8">完全性・重なり</text>
<text x="686.0" y="130" font-size="12.5" font-weight="400" text-anchor="middle" fill="#98a1b8">当たらない行・単位</text>
<text x="686.0" y="149" font-size="12.5" font-weight="400" text-anchor="middle" fill="#98a1b8">丸め・オーバーフロー</text>
<text x="686.0" y="168" font-size="12.5" font-weight="400" text-anchor="middle" fill="#98a1b8">例が通ること</text>
<clipPath id="clip-person"><rect x="375" y="232" width="170" height="148" rx="10"/></clipPath>
<rect x="375" y="232" width="170" height="148" rx="10" fill="#171b24" stroke="#2b3242"/>
<rect x="375" y="232" width="170" height="5" fill="#e0b45c" clip-path="url(#clip-person)"/>
<text x="460.0" y="275" font-size="17" font-weight="700" text-anchor="middle" fill="#e8ebf4">人</text>
<text x="460.0" y="304" font-size="12.5" font-weight="400" text-anchor="middle" fill="#98a1b8">金額を決める</text>
<text x="460.0" y="323" font-size="12.5" font-weight="400" text-anchor="middle" fill="#98a1b8">丸めの向きを決める</text>
<text x="460.0" y="342" font-size="12.5" font-weight="400" text-anchor="middle" fill="#98a1b8">表を承認する</text>
<text x="460.0" y="361" font-size="12.5" font-weight="400" text-anchor="middle" fill="#98a1b8">コードは書かない</text>
<path d="M20,20 H124 L136,32 V120 H20 Z" fill="#1e2331" stroke="#3a4257" stroke-linejoin="round"/>
<path d="M124,20 V32 H136 Z" fill="#2b3242" stroke="#3a4257" stroke-linejoin="round"/>
<text x="29" y="42" font-size="13" font-weight="600" text-anchor="start" fill="#e8ebf4">元の資料</text>
<text x="29" y="60" font-size="11.5" font-weight="400" text-anchor="start" fill="#98a1b8">規約の文書</text>
<text x="29" y="75" font-size="11.5" font-weight="400" text-anchor="start" fill="#98a1b8">Excel</text>
<text x="29" y="90" font-size="11.5" font-weight="400" text-anchor="start" fill="#98a1b8">旧実装</text>
<path d="M410,45 H510 L522,57 V95 H410 Z" fill="#1e2331" stroke="#3a4257" stroke-linejoin="round"/>
<path d="M510,45 V57 H522 Z" fill="#2b3242" stroke="#3a4257" stroke-linejoin="round"/>
<text x="419" y="67" font-size="13" font-weight="600" text-anchor="start" fill="#e8ebf4">表</text>
<text x="513" y="67" font-size="9.5" font-weight="400" text-anchor="end" fill="#98a1b8" font-family="ui-monospace, SFMono-Regular, Menlo, Consolas, monospace">.rule</text>
<text x="419" y="85" font-size="11.5" font-weight="400" text-anchor="start" fill="#98a1b8">1 規則 = 1 表</text>
<path d="M391,122 H529 L541,134 V202 H391 Z" fill="#1e2331" stroke="#3a4257" stroke-linejoin="round"/>
<path d="M529,122 V134 H541 Z" fill="#2b3242" stroke="#3a4257" stroke-linejoin="round"/>
<text x="400" y="144" font-size="13" font-weight="600" text-anchor="start" fill="#e8ebf4">診断</text>
<text x="532" y="144" font-size="9.5" font-weight="400" text-anchor="end" fill="#98a1b8" font-family="ui-monospace, SFMono-Regular, Menlo, Consolas, monospace">JSON</text>
<text x="400" y="162" font-size="11.5" font-weight="400" text-anchor="start" fill="#98a1b8">どこが</text>
<text x="400" y="177" font-size="11.5" font-weight="400" text-anchor="start" fill="#98a1b8">どう直すか</text>
<text x="400" y="192" font-size="11.5" font-weight="400" text-anchor="start" fill="#98a1b8">それを起こす入力</text>
<path d="M860,20 H968 L980,32 V120 H860 Z" fill="#1e2331" stroke="#3a4257" stroke-linejoin="round"/>
<path d="M968,20 V32 H980 Z" fill="#2b3242" stroke="#3a4257" stroke-linejoin="round"/>
<text x="869" y="42" font-size="13" font-weight="600" text-anchor="start" fill="#e8ebf4">Python と Go</text>
<text x="869" y="60" font-size="11.5" font-weight="400" text-anchor="start" fill="#98a1b8">証明済み</text>
<text x="869" y="75" font-size="11.5" font-weight="400" text-anchor="start" fill="#98a1b8">依存ゼロ</text>
<text x="869" y="90" font-size="11.5" font-weight="400" text-anchor="start" fill="#98a1b8">両言語で同じ答え</text>
<path d="M601,271 H759 L771,283 V341 H601 Z" fill="#1e2331" stroke="#3a4257" stroke-linejoin="round"/>
<path d="M759,271 V283 H771 Z" fill="#2b3242" stroke="#3a4257" stroke-linejoin="round"/>
<text x="610" y="293" font-size="13" font-weight="600" text-anchor="start" fill="#e8ebf4">具体例つきの質問</text>
<text x="610" y="311" font-size="11.5" font-weight="400" text-anchor="start" fill="#98a1b8">「山梨県あての S60 の</text>
<text x="610" y="326" font-size="11.5" font-weight="400" text-anchor="start" fill="#98a1b8">運賃はいくらですか」</text>
<path d="M176,271 H304 L316,283 V341 H176 Z" fill="#1e2331" stroke="#3a4257" stroke-linejoin="round"/>
<path d="M304,271 V283 H316 Z" fill="#2b3242" stroke="#3a4257" stroke-linejoin="round"/>
<text x="185" y="293" font-size="13" font-weight="600" text-anchor="start" fill="#e8ebf4">答え</text>
<text x="185" y="311" font-size="11.5" font-weight="400" text-anchor="start" fill="#98a1b8">金額</text>
<text x="185" y="326" font-size="11.5" font-weight="400" text-anchor="start" fill="#98a1b8">丸めの向き</text>
<line x1="136" y1="70" x2="166" y2="70" stroke="#6b7590" stroke-width="1.8" marker-end="url(#head-neutral)"/>
<line x1="326" y1="70" x2="410" y2="70" stroke="#8e9cff" stroke-width="1.8" marker-end="url(#head-accent)"/>
<line x1="522" y1="70" x2="606" y2="70" stroke="#8e9cff" stroke-width="1.8" marker-end="url(#head-accent)"/>
<text x="564.0" y="61" font-size="10.5" font-weight="400" text-anchor="middle" fill="#98a1b8" font-family="ui-monospace, SFMono-Regular, Menlo, Consolas, monospace">rulec check</text>
<line x1="606" y1="162" x2="541" y2="162" stroke="#8e9cff" stroke-width="1.8" marker-end="url(#head-accent)"/>
<line x1="391" y1="162" x2="326" y2="162" stroke="#8e9cff" stroke-width="1.8" marker-end="url(#head-accent)"/>
<text x="466.0" y="113" font-size="11" font-weight="400" text-anchor="middle" fill="#8e9cff">通るまで繰り返す</text>
<line x1="766" y1="70" x2="860" y2="70" stroke="#6b7590" stroke-width="1.8" marker-end="url(#head-neutral)"/>
<text x="813.0" y="61" font-size="10.5" font-weight="400" text-anchor="middle" fill="#98a1b8" font-family="ui-monospace, SFMono-Regular, Menlo, Consolas, monospace">rulec gen</text>
<text x="813.0" y="88" font-size="10.5" font-weight="400" text-anchor="middle" fill="#98a1b8">通ったら</text>
<line x1="686" y1="216" x2="686" y2="271" stroke="#e0b45c" stroke-width="1.8" marker-end="url(#head-human)"/>
<text x="694" y="247.5" font-size="11" font-weight="400" text-anchor="start" fill="#e0b45c">決められないことだけ</text>
<line x1="601" y1="306" x2="545" y2="306" stroke="#e0b45c" stroke-width="1.8" marker-end="url(#head-human)"/>
<line x1="375" y1="306" x2="316" y2="306" stroke="#e0b45c" stroke-width="1.8" marker-end="url(#head-human)"/>
<line x1="246" y1="271" x2="246" y2="216" stroke="#e0b45c" stroke-width="1.8" marker-end="url(#head-human)"/>
<text x="254" y="247.5" font-size="11" font-weight="400" text-anchor="start" fill="#e0b45c">ループへ戻る</text>
</svg>
